<svg xmlns="http://www.w3.org/2000/svg" viewBox="0 0 226.5 226.5"><defs><style>.cls-1{fill-rule:evenodd;}</style></defs><g id="레이어_2" data-name="레이어 2"><g id="레이어_2-2" data-name="레이어 2"><path class="cls-1" d="M8.3,226.5H218.21a8.29,8.29,0,0,0,8.29-8.29V8.3A8.29,8.29,0,0,0,218.21,0H8.3A8.29,8.29,0,0,0,0,8.3V218.21A8.29,8.29,0,0,0,8.3,226.5ZM40.59,125.31,88.24,13a8.3,8.3,0,0,1,10.88-4.4L211.39,56.3a8.29,8.29,0,0,1,4.39,10.88L168.13,179.45a8.3,8.3,0,0,1-10.88,4.39L45,136.19A8.29,8.29,0,0,1,40.59,125.31Z"/></g></g></svg>