<svg id="Layer_1" data-name="Layer 1" xmlns="http://www.w3.org/2000/svg" viewBox="0 0 110.236 82.601"><path d="M6.733,47.883h0a20.57,20.57,0,0,1,29.092,0l3.44,5.036a28.065,28.065,0,0,0,11.106,9.51h0a28.786,28.786,0,0,0-10.114,8.553l-4.432,5.993a20.572,20.572,0,0,1-29.092,0h0A20.572,20.572,0,0,1,6.733,47.883Z" transform="translate(-0.708 -0.399)"/><path d="M97.5,73.96c8.595-7.813,13.443-19.7,13.443-32.228A42.733,42.733,0,0,0,80.494.805,9.529,9.529,0,0,0,68.231,9.929l-.461,22.28A32.688,32.688,0,0,1,58.2,54.646h0L50.42,62.429,52.773,63.7A27.093,27.093,0,0,1,63.9,74.942l.82,1.27a12.318,12.318,0,0,0,3.025,3.241,17.818,17.818,0,0,0,5.944,2.765,13.525,13.525,0,0,0,5.185.768C84.333,83.143,93.333,78.128,97.5,73.96Z" transform="translate(-0.708 -0.399)"/></svg>